# xmcd
#
# Track frame offsets:
#	150
#	6601
#	12526
#	18414
#	26515
#	32966
#	39417
#	47218
#	56519
#	70470
#	77521
#	84572
#	92223
#	97361
#	105649
#	114837
#	124025
#	147726
#
# Disc length: 2258 seconds
#
# Revision: 0
# Processed by: cddbd v1.5.2PL0 Copyright (c) Steve Scherf et al.
# Submitted via: audiograbber 1.83.01
#
DISCID=fa08d012
DTITLE=Beston, Nick - Improvising Blues Saxophone
DYEAR=2009
DGENRE=Instrumental
TTITLE0=Walking Blues BT
TTITLE1=Market Blues tune
TTITLE2=Market Blues BT
TTITLE3=Railroad Blues BT
TTITLE4=Staple Blues tune
TTITLE5=Staple Blues BT
TTITLE6=Blues for Riffy BT
TTITLE7=Mixed Blues BT
TTITLE8=Elephant Blues BT
TTITLE9=Offside Blues BT Alto
TTITLE10=Offside Blues BT Tenor
TTITLE11=Park Blues BT slow
TTITLE12=Park Blues BT fast
TTITLE13=Pushing it Blues BT
TTITLE14=Blues for Ronim tune
TTITLE15=Blues for Ronim BT
TTITLE16=Here We Go BT
TTITLE17=Data Track
EXTD=
EXTT0=
EXTT1=
EXTT2=
EXTT3=
EXTT4=
EXTT5=
EXTT6=
EXTT7=
EXTT8=
EXTT9=
EXTT10=
EXTT11=
EXTT12=
EXTT13=
EXTT14=
EXTT15=
EXTT16=
EXTT17=
PLAYORDER=
